<?xml version="1.0" encoding="UTF-8"?>
<!DOCTYPE svg PUBLIC "-//W3C//DTD SVG 1.1//EN" "http://www.w3.org/Graphics/SVG/1.1/DTD/svg11.dtd">
<!-- Creator: CorelDRAW X7 -->
<svg xmlns="http://www.w3.org/2000/svg" xml:space="preserve" width="105mm" height="84mm" version="1.1" style="shape-rendering:geometricPrecision; text-rendering:geometricPrecision; image-rendering:optimizeQuality; fill-rule:evenodd; clip-rule:evenodd"
viewBox="0 0 10500 8400"
 xmlns:xlink="http://www.w3.org/1999/xlink">
 <defs>
  <style type="text/css">
   <![CDATA[
    .str0 {stroke:white;stroke-width:100}
    .fil0 {fill:#0B94DD}
    .fil1 {fill:#E06500}
    .fil2 {fill:#FBC82D}
   ]]>
  </style>
 </defs>
 <g id="Слой_x0020_1">
  <metadata id="CorelCorpID_0Corel-Layer"/>
  <g id="_1363127824">
   <polygon class="fil0 str0" points="1108,4265 4856,4265 4856,7079 1108,7079 "/>
   <polygon class="fil1 str0" points="1108,4265 4856,4265 4856,2364 1108,2364 "/>
   <polygon class="fil2 str0" points="1108,1254 4856,1254 4856,2364 1108,2364 "/>
   <polygon class="fil0 str0" points="7634,5005 4856,5005 4856,7079 7634,7079 "/>
   <polygon class="fil1 str0" points="7634,5005 4856,5005 4856,2735 7634,2735 "/>
   <polygon class="fil2 str0" points="7634,1254 4856,1254 4856,2735 7634,2735 "/>
   <polygon class="fil0 str0" points="7634,5696 9371,5696 9371,7079 7634,7079 "/>
   <polygon class="fil1 str0" points="7634,5696 9371,5696 9371,4487 7634,4487 "/>
   <polygon class="fil1 str0" points="7634,5696 9371,5696 9371,4487 7634,4487 "/>
   <polygon class="fil2 str0" points="7634,1254 9371,1254 9371,4487 7634,4487 "/>
  </g>
 </g>
</svg>
